<svg width="17" height="23" viewBox="0 0 17 23" fill="none" xmlns="http://www.w3.org/2000/svg">
<path d="M15.75 8.25C15.75 10.8419 12.8136 15.736 10.6155 19.2814C9.59505 20.9271 9.0849 21.75 8.25 21.75C7.4151 21.75 6.90495 20.9271 5.8845 19.2814C3.68645 15.736 0.75 10.8419 0.75 8.25C0.75 4.10787 4.10787 0.75 8.25 0.75C12.3921 0.75 15.75 4.10787 15.75 8.25Z" stroke="#362110" stroke-width="1.5" stroke-linecap="round" stroke-linejoin="round"/>
<path d="M11.75 8.25C11.75 10.183 10.183 11.75 8.25 11.75C6.31702 11.75 4.75 10.183 4.75 8.25C4.75 6.31701 6.31702 4.75 8.25 4.75C10.183 4.75 11.75 6.31701 11.75 8.25Z" stroke="#362110" stroke-width="1.5" stroke-linecap="round" stroke-linejoin="round"/>
</svg>
