<svg width="28" height="28" viewBox="0 0 28 28" fill="none" xmlns="http://www.w3.org/2000/svg">
<path d="M2.34966 8.01644C1.57214 11.7386 4.50301 16.1695 8.18389 19.8504C11.8648 23.5313 16.2956 26.4622 20.0178 25.6846C23.0791 25.0452 24.6418 23.4145 25.5214 22.0251C25.8248 21.5456 25.6716 20.9233 25.2167 20.5841L20.9095 17.3712C20.4451 17.0248 19.7966 17.0717 19.387 17.4814L17.1007 19.7676C17.1007 19.7676 14.8784 19.0452 11.9337 16.1006C8.98902 13.1559 8.26664 10.9336 8.26664 10.9336L10.5529 8.64732C10.9626 8.2376 11.0096 7.58927 10.6631 7.12481L7.45022 2.81749C7.11096 2.36267 6.48863 2.20948 6.00919 2.51296C4.61972 3.39247 2.9891 4.95526 2.34966 8.01644Z" stroke="#362110" stroke-width="1.5" stroke-linecap="round" stroke-linejoin="round"/>
</svg>
