<svg width="31" height="24" viewBox="0 0 31 24" fill="none" xmlns="http://www.w3.org/2000/svg">
<path d="M30.9241 3.25343C30.7952 2.60758 30.5047 1.99717 30.0809 1.48399C29.9948 1.37625 29.9048 1.2804 29.8063 1.18317C29.0523 0.431264 28.0034 0 26.9285 0H4.07141C2.98454 0 1.96232 0.420394 1.19308 1.18359C1.09572 1.27992 1.00544 1.37673 0.916074 1.48789C0.494063 1.99891 0.20483 2.60849 0.0790742 3.25523C0.0265195 3.50921 0 3.77238 0 4.03861V19.9618C0 20.5157 0.113465 21.0551 0.338396 21.568C0.533055 22.0234 0.828402 22.4551 1.19283 22.8164C1.28462 22.907 1.37581 22.9906 1.47317 23.0721C2.20179 23.6707 3.1244 24 4.07141 24H26.9285C27.8816 24 28.8033 23.6694 29.53 23.0655C29.6271 22.9876 29.7171 22.9057 29.8072 22.8164C30.1594 22.4674 30.4394 22.0663 30.6407 21.6241L30.6672 21.561C30.8879 21.0579 31 20.5202 31 19.9618V4.03861C31 3.77586 30.9744 3.51095 30.9241 3.25343ZM2.10842 2.57738C2.166 2.49378 2.23951 2.40796 2.33329 2.31421C2.79884 1.85268 3.41624 1.5987 4.07135 1.5987H26.9284C27.5893 1.5987 28.2069 1.8531 28.6672 2.31511C28.7467 2.39481 28.8227 2.48327 28.8889 2.57167L29.0637 2.80469L16.8635 13.3515C16.4874 13.6786 16.0031 13.8586 15.4998 13.8586C15.0015 13.8586 14.5176 13.679 14.137 13.352L1.949 2.80769L2.10842 2.57738ZM1.61993 20.1023C1.61333 20.059 1.61182 20.0108 1.61182 19.9618V4.36832L11.0795 12.5607L1.70736 20.6659L1.61993 20.1023ZM28.1482 22.0798C27.7818 22.2895 27.3597 22.4008 26.9285 22.4008H4.07141C3.6399 22.4008 3.21807 22.2895 2.85188 22.0798L2.46874 21.8595L12.1524 13.4889L13.2136 14.4046C13.8502 14.9528 14.662 15.255 15.4999 15.255C16.3409 15.255 17.1541 14.9528 17.7902 14.4046L18.8511 13.4885L28.5314 21.86L28.1482 22.0798ZM29.3878 19.9618C29.3878 20.01 29.3869 20.0577 29.3807 20.1001L29.2968 20.669L19.9206 12.565L29.3878 4.37228V19.9618Z" fill="#362110"/>
</svg>
