<svg width="346" height="315" viewBox="0 0 346 315" fill="none" xmlns="http://www.w3.org/2000/svg">
<path d="M100.34 0H245.66C301.02 0 346 40.9386 346 91.3246V223.588C346 247.809 335.429 271.037 316.611 288.164C297.794 305.291 272.272 314.912 245.66 314.912H100.34C44.98 314.912 0 273.974 0 223.588V91.3246C0 67.1038 10.5715 43.875 29.3889 26.7484C48.2063 9.62167 73.7282 0 100.34 0ZM96.88 31.4912C80.3623 31.4912 64.5212 37.4633 52.8414 48.0937C41.1616 58.724 34.6 73.1419 34.6 88.1755V226.737C34.6 258.071 62.453 283.421 96.88 283.421H249.12C265.638 283.421 281.479 277.449 293.159 266.819C304.838 256.188 311.4 241.771 311.4 226.737V88.1755C311.4 56.8417 283.547 31.4912 249.12 31.4912H96.88ZM263.825 55.1097C269.56 55.1097 275.061 57.1833 279.116 60.8744C283.172 64.5655 285.45 69.5717 285.45 74.7917C285.45 80.0117 283.172 85.0179 279.116 88.709C275.061 92.4001 269.56 94.4737 263.825 94.4737C258.09 94.4737 252.589 92.4001 248.534 88.709C244.478 85.0179 242.2 80.0117 242.2 74.7917C242.2 69.5717 244.478 64.5655 248.534 60.8744C252.589 57.1833 258.09 55.1097 263.825 55.1097ZM173 78.7281C195.941 78.7281 217.943 87.0226 234.165 101.787C250.387 116.551 259.5 136.576 259.5 157.456C259.5 178.336 250.387 198.361 234.165 213.125C217.943 227.89 195.941 236.184 173 236.184C150.059 236.184 128.057 227.89 111.835 213.125C95.6134 198.361 86.5 178.336 86.5 157.456C86.5 136.576 95.6134 116.551 111.835 101.787C128.057 87.0226 150.059 78.7281 173 78.7281ZM173 110.219C159.235 110.219 146.034 115.196 136.301 124.055C126.568 132.913 121.1 144.928 121.1 157.456C121.1 169.984 126.568 181.999 136.301 190.858C146.034 199.716 159.235 204.693 173 204.693C186.765 204.693 199.966 199.716 209.699 190.858C219.432 181.999 224.9 169.984 224.9 157.456C224.9 144.928 219.432 132.913 209.699 124.055C199.966 115.196 186.765 110.219 173 110.219Z" fill="#9E434A" fill-opacity="0.96"/>
</svg>
